<mxfile host="Electron" agent="Mozilla/5.0 (Windows NT 10.0; Win64; x64) AppleWebKit/537.36 (KHTML, like Gecko) draw.io/28.0.6 Chrome/138.0.7204.100 Electron/37.2.3 Safari/537.36" version="28.0.6">
  <diagram name="Page-1" id="A1Kh8tMtrU8XJ6_WNaC-">
    <mxGraphModel dx="1158" dy="831" grid="1" gridSize="10" guides="1" tooltips="1" connect="1" arrows="1" fold="1" page="1" pageScale="1" pageWidth="827" pageHeight="1169" math="0" shadow="0">
      <root>
        <mxCell id="0" />
        <mxCell id="1" parent="0" />
        <mxCell id="qG3GgvVvUm3bMl8M9qnN-1" value="MS Fabric" style="rounded=0;whiteSpace=wrap;html=1;" vertex="1" parent="1">
          <mxGeometry x="80" y="100" width="80" height="80" as="geometry" />
        </mxCell>
        <mxCell id="qG3GgvVvUm3bMl8M9qnN-2" value="" style="endArrow=classic;html=1;rounded=0;exitX=1;exitY=0.5;exitDx=0;exitDy=0;" edge="1" parent="1" source="qG3GgvVvUm3bMl8M9qnN-1">
          <mxGeometry width="50" height="50" relative="1" as="geometry">
            <mxPoint x="430" y="500" as="sourcePoint" />
            <mxPoint x="960" y="140" as="targetPoint" />
          </mxGeometry>
        </mxCell>
        <mxCell id="qG3GgvVvUm3bMl8M9qnN-17" value="Orchestration (every x hours)" style="edgeLabel;html=1;align=center;verticalAlign=middle;resizable=0;points=[];" vertex="1" connectable="0" parent="qG3GgvVvUm3bMl8M9qnN-2">
          <mxGeometry x="-0.1544" relative="1" as="geometry">
            <mxPoint y="-10" as="offset" />
          </mxGeometry>
        </mxCell>
        <mxCell id="qG3GgvVvUm3bMl8M9qnN-3" value="" style="endArrow=classic;html=1;rounded=0;" edge="1" parent="1">
          <mxGeometry width="50" height="50" relative="1" as="geometry">
            <mxPoint x="240" y="140" as="sourcePoint" />
            <mxPoint x="240" y="260" as="targetPoint" />
          </mxGeometry>
        </mxCell>
        <mxCell id="qG3GgvVvUm3bMl8M9qnN-5" value="Bronze" style="edgeLabel;html=1;align=center;verticalAlign=middle;resizable=0;points=[];rotation=-90;" vertex="1" connectable="0" parent="qG3GgvVvUm3bMl8M9qnN-3">
          <mxGeometry x="0.0333" y="1" relative="1" as="geometry">
            <mxPoint x="-11" as="offset" />
          </mxGeometry>
        </mxCell>
        <mxCell id="qG3GgvVvUm3bMl8M9qnN-6" value="Ingestion Notebook" style="swimlane;whiteSpace=wrap;html=1;" vertex="1" parent="1">
          <mxGeometry x="120" y="260" width="240" height="240" as="geometry" />
        </mxCell>
        <mxCell id="qG3GgvVvUm3bMl8M9qnN-7" value="Download orders.zip" style="rounded=0;whiteSpace=wrap;html=1;" vertex="1" parent="qG3GgvVvUm3bMl8M9qnN-6">
          <mxGeometry x="20" y="40" width="80" height="80" as="geometry" />
        </mxCell>
        <mxCell id="qG3GgvVvUm3bMl8M9qnN-9" value="Unzip, land files in correct location" style="rounded=0;whiteSpace=wrap;html=1;" vertex="1" parent="qG3GgvVvUm3bMl8M9qnN-6">
          <mxGeometry x="140" y="40" width="80" height="80" as="geometry" />
        </mxCell>
        <mxCell id="qG3GgvVvUm3bMl8M9qnN-10" value="" style="endArrow=classic;html=1;rounded=0;exitX=1;exitY=0.5;exitDx=0;exitDy=0;entryX=0;entryY=0.5;entryDx=0;entryDy=0;" edge="1" parent="qG3GgvVvUm3bMl8M9qnN-6" source="qG3GgvVvUm3bMl8M9qnN-7" target="qG3GgvVvUm3bMl8M9qnN-9">
          <mxGeometry width="50" height="50" relative="1" as="geometry">
            <mxPoint x="170" y="200" as="sourcePoint" />
            <mxPoint x="220" y="150" as="targetPoint" />
          </mxGeometry>
        </mxCell>
        <mxCell id="qG3GgvVvUm3bMl8M9qnN-13" value="Define schema, load files into bronze." style="rounded=0;whiteSpace=wrap;html=1;fillColor=#ffe6cc;strokeColor=#d79b00;" vertex="1" parent="qG3GgvVvUm3bMl8M9qnN-6">
          <mxGeometry x="80" y="140" width="80" height="80" as="geometry" />
        </mxCell>
        <mxCell id="qG3GgvVvUm3bMl8M9qnN-14" value="" style="endArrow=classic;html=1;rounded=0;exitX=0.5;exitY=1;exitDx=0;exitDy=0;entryX=1;entryY=0.5;entryDx=0;entryDy=0;" edge="1" parent="qG3GgvVvUm3bMl8M9qnN-6" source="qG3GgvVvUm3bMl8M9qnN-9" target="qG3GgvVvUm3bMl8M9qnN-13">
          <mxGeometry width="50" height="50" relative="1" as="geometry">
            <mxPoint x="170" y="200" as="sourcePoint" />
            <mxPoint x="220" y="150" as="targetPoint" />
            <Array as="points">
              <mxPoint x="180" y="180" />
            </Array>
          </mxGeometry>
        </mxCell>
        <mxCell id="qG3GgvVvUm3bMl8M9qnN-15" value="" style="endArrow=classic;html=1;rounded=0;exitX=0.5;exitY=1;exitDx=0;exitDy=0;" edge="1" parent="1" source="qG3GgvVvUm3bMl8M9qnN-6">
          <mxGeometry width="50" height="50" relative="1" as="geometry">
            <mxPoint x="290" y="460" as="sourcePoint" />
            <mxPoint x="240" y="540" as="targetPoint" />
          </mxGeometry>
        </mxCell>
        <mxCell id="qG3GgvVvUm3bMl8M9qnN-16" value="Create log of success/fail." style="rounded=0;whiteSpace=wrap;html=1;" vertex="1" parent="1">
          <mxGeometry x="200" y="540" width="80" height="80" as="geometry" />
        </mxCell>
        <mxCell id="qG3GgvVvUm3bMl8M9qnN-18" value="" style="endArrow=classic;html=1;rounded=0;" edge="1" parent="1">
          <mxGeometry width="50" height="50" relative="1" as="geometry">
            <mxPoint x="520" y="140" as="sourcePoint" />
            <mxPoint x="520" y="260" as="targetPoint" />
          </mxGeometry>
        </mxCell>
        <mxCell id="qG3GgvVvUm3bMl8M9qnN-19" value="Silver" style="edgeLabel;html=1;align=center;verticalAlign=middle;resizable=0;points=[];rotation=-90;" vertex="1" connectable="0" parent="qG3GgvVvUm3bMl8M9qnN-18">
          <mxGeometry x="0.0333" y="1" relative="1" as="geometry">
            <mxPoint x="-11" as="offset" />
          </mxGeometry>
        </mxCell>
        <mxCell id="qG3GgvVvUm3bMl8M9qnN-20" value="Silver Notebook" style="swimlane;whiteSpace=wrap;html=1;" vertex="1" parent="1">
          <mxGeometry x="400" y="260" width="240" height="260" as="geometry" />
        </mxCell>
        <mxCell id="qG3GgvVvUm3bMl8M9qnN-21" value="Read bronze delta table" style="rounded=0;whiteSpace=wrap;html=1;" vertex="1" parent="qG3GgvVvUm3bMl8M9qnN-20">
          <mxGeometry x="20" y="40" width="80" height="80" as="geometry" />
        </mxCell>
        <mxCell id="qG3GgvVvUm3bMl8M9qnN-22" value="Add columns for data validation" style="rounded=0;whiteSpace=wrap;html=1;" vertex="1" parent="qG3GgvVvUm3bMl8M9qnN-20">
          <mxGeometry x="140" y="40" width="80" height="80" as="geometry" />
        </mxCell>
        <mxCell id="qG3GgvVvUm3bMl8M9qnN-23" value="" style="endArrow=classic;html=1;rounded=0;exitX=1;exitY=0.5;exitDx=0;exitDy=0;entryX=0;entryY=0.5;entryDx=0;entryDy=0;" edge="1" parent="qG3GgvVvUm3bMl8M9qnN-20" source="qG3GgvVvUm3bMl8M9qnN-21" target="qG3GgvVvUm3bMl8M9qnN-22">
          <mxGeometry width="50" height="50" relative="1" as="geometry">
            <mxPoint x="170" y="200" as="sourcePoint" />
            <mxPoint x="220" y="150" as="targetPoint" />
          </mxGeometry>
        </mxCell>
        <mxCell id="qG3GgvVvUm3bMl8M9qnN-24" value="Define schema" style="rounded=0;whiteSpace=wrap;html=1;" vertex="1" parent="qG3GgvVvUm3bMl8M9qnN-20">
          <mxGeometry x="20" y="160" width="80" height="80" as="geometry" />
        </mxCell>
        <mxCell id="qG3GgvVvUm3bMl8M9qnN-26" value="Upsert data into silver." style="rounded=0;whiteSpace=wrap;html=1;fillColor=#dae8fc;strokeColor=#6c8ebf;" vertex="1" parent="qG3GgvVvUm3bMl8M9qnN-20">
          <mxGeometry x="140" y="160" width="80" height="80" as="geometry" />
        </mxCell>
        <mxCell id="qG3GgvVvUm3bMl8M9qnN-28" value="" style="endArrow=classic;html=1;rounded=0;exitX=0.5;exitY=1;exitDx=0;exitDy=0;entryX=0.5;entryY=0;entryDx=0;entryDy=0;" edge="1" parent="qG3GgvVvUm3bMl8M9qnN-20" source="qG3GgvVvUm3bMl8M9qnN-22" target="qG3GgvVvUm3bMl8M9qnN-24">
          <mxGeometry width="50" height="50" relative="1" as="geometry">
            <mxPoint x="-30" y="290" as="sourcePoint" />
            <mxPoint x="20" y="240" as="targetPoint" />
            <Array as="points">
              <mxPoint x="180" y="140" />
              <mxPoint x="60" y="140" />
            </Array>
          </mxGeometry>
        </mxCell>
        <mxCell id="qG3GgvVvUm3bMl8M9qnN-29" value="" style="endArrow=classic;html=1;rounded=0;exitX=1;exitY=0.5;exitDx=0;exitDy=0;entryX=0;entryY=0.5;entryDx=0;entryDy=0;" edge="1" parent="qG3GgvVvUm3bMl8M9qnN-20" source="qG3GgvVvUm3bMl8M9qnN-24" target="qG3GgvVvUm3bMl8M9qnN-26">
          <mxGeometry width="50" height="50" relative="1" as="geometry">
            <mxPoint x="-30" y="290" as="sourcePoint" />
            <mxPoint x="20" y="240" as="targetPoint" />
          </mxGeometry>
        </mxCell>
        <mxCell id="qG3GgvVvUm3bMl8M9qnN-30" value="Create log of success/fail." style="rounded=0;whiteSpace=wrap;html=1;" vertex="1" parent="1">
          <mxGeometry x="480" y="560" width="80" height="80" as="geometry" />
        </mxCell>
        <mxCell id="qG3GgvVvUm3bMl8M9qnN-31" value="" style="endArrow=classic;html=1;rounded=0;exitX=0.5;exitY=1;exitDx=0;exitDy=0;entryX=0.5;entryY=0;entryDx=0;entryDy=0;" edge="1" parent="1" source="qG3GgvVvUm3bMl8M9qnN-20" target="qG3GgvVvUm3bMl8M9qnN-30">
          <mxGeometry width="50" height="50" relative="1" as="geometry">
            <mxPoint x="370" y="550" as="sourcePoint" />
            <mxPoint x="420" y="500" as="targetPoint" />
          </mxGeometry>
        </mxCell>
        <mxCell id="qG3GgvVvUm3bMl8M9qnN-32" value="" style="endArrow=classic;html=1;rounded=0;" edge="1" parent="1">
          <mxGeometry width="50" height="50" relative="1" as="geometry">
            <mxPoint x="799.58" y="140" as="sourcePoint" />
            <mxPoint x="799.58" y="260" as="targetPoint" />
          </mxGeometry>
        </mxCell>
        <mxCell id="qG3GgvVvUm3bMl8M9qnN-33" value="Gold" style="edgeLabel;html=1;align=center;verticalAlign=middle;resizable=0;points=[];rotation=-90;" vertex="1" connectable="0" parent="qG3GgvVvUm3bMl8M9qnN-32">
          <mxGeometry x="0.0333" y="1" relative="1" as="geometry">
            <mxPoint x="-11" as="offset" />
          </mxGeometry>
        </mxCell>
        <mxCell id="qG3GgvVvUm3bMl8M9qnN-34" value="Silver Notebook" style="swimlane;whiteSpace=wrap;html=1;" vertex="1" parent="1">
          <mxGeometry x="680" y="260" width="240" height="380" as="geometry" />
        </mxCell>
        <mxCell id="qG3GgvVvUm3bMl8M9qnN-35" value="Read silver delta table" style="rounded=0;whiteSpace=wrap;html=1;" vertex="1" parent="qG3GgvVvUm3bMl8M9qnN-34">
          <mxGeometry x="20" y="40" width="80" height="80" as="geometry" />
        </mxCell>
        <mxCell id="qG3GgvVvUm3bMl8M9qnN-36" value="Create dimension date table (Gold)" style="rounded=0;whiteSpace=wrap;html=1;fillColor=#fff2cc;strokeColor=#d6b656;" vertex="1" parent="qG3GgvVvUm3bMl8M9qnN-34">
          <mxGeometry x="140" y="40" width="80" height="80" as="geometry" />
        </mxCell>
        <mxCell id="qG3GgvVvUm3bMl8M9qnN-37" value="" style="endArrow=classic;html=1;rounded=0;exitX=1;exitY=0.5;exitDx=0;exitDy=0;entryX=0;entryY=0.5;entryDx=0;entryDy=0;" edge="1" parent="qG3GgvVvUm3bMl8M9qnN-34" source="qG3GgvVvUm3bMl8M9qnN-35" target="qG3GgvVvUm3bMl8M9qnN-36">
          <mxGeometry width="50" height="50" relative="1" as="geometry">
            <mxPoint x="170" y="200" as="sourcePoint" />
            <mxPoint x="220" y="150" as="targetPoint" />
          </mxGeometry>
        </mxCell>
        <mxCell id="qG3GgvVvUm3bMl8M9qnN-38" value="Create dimension customer table (Gold)" style="rounded=0;whiteSpace=wrap;html=1;fillColor=#fff2cc;strokeColor=#d6b656;" vertex="1" parent="qG3GgvVvUm3bMl8M9qnN-34">
          <mxGeometry x="20" y="160" width="80" height="80" as="geometry" />
        </mxCell>
        <mxCell id="qG3GgvVvUm3bMl8M9qnN-39" value="Create dimension product table (Gold)" style="rounded=0;whiteSpace=wrap;html=1;fillColor=#fff2cc;strokeColor=#d6b656;" vertex="1" parent="qG3GgvVvUm3bMl8M9qnN-34">
          <mxGeometry x="140" y="160" width="80" height="80" as="geometry" />
        </mxCell>
        <mxCell id="qG3GgvVvUm3bMl8M9qnN-40" value="" style="endArrow=classic;html=1;rounded=0;exitX=0.5;exitY=1;exitDx=0;exitDy=0;entryX=0.5;entryY=0;entryDx=0;entryDy=0;" edge="1" parent="qG3GgvVvUm3bMl8M9qnN-34" source="qG3GgvVvUm3bMl8M9qnN-36" target="qG3GgvVvUm3bMl8M9qnN-38">
          <mxGeometry width="50" height="50" relative="1" as="geometry">
            <mxPoint x="-30" y="290" as="sourcePoint" />
            <mxPoint x="20" y="240" as="targetPoint" />
            <Array as="points">
              <mxPoint x="180" y="140" />
              <mxPoint x="60" y="140" />
            </Array>
          </mxGeometry>
        </mxCell>
        <mxCell id="qG3GgvVvUm3bMl8M9qnN-41" value="" style="endArrow=classic;html=1;rounded=0;exitX=1;exitY=0.5;exitDx=0;exitDy=0;entryX=0;entryY=0.5;entryDx=0;entryDy=0;" edge="1" parent="qG3GgvVvUm3bMl8M9qnN-34" source="qG3GgvVvUm3bMl8M9qnN-38" target="qG3GgvVvUm3bMl8M9qnN-39">
          <mxGeometry width="50" height="50" relative="1" as="geometry">
            <mxPoint x="-30" y="290" as="sourcePoint" />
            <mxPoint x="20" y="240" as="targetPoint" />
          </mxGeometry>
        </mxCell>
        <mxCell id="qG3GgvVvUm3bMl8M9qnN-42" value="Dev" style="swimlane;whiteSpace=wrap;html=1;" vertex="1" parent="1">
          <mxGeometry x="40" y="40" width="960" height="620" as="geometry" />
        </mxCell>
        <mxCell id="qG3GgvVvUm3bMl8M9qnN-46" value="Create fact sales table (Gold)" style="rounded=0;whiteSpace=wrap;html=1;fillColor=#fff2cc;strokeColor=#d6b656;" vertex="1" parent="qG3GgvVvUm3bMl8M9qnN-42">
          <mxGeometry x="660" y="500" width="80" height="80" as="geometry" />
        </mxCell>
        <mxCell id="qG3GgvVvUm3bMl8M9qnN-50" value="Create log of success/fail." style="rounded=0;whiteSpace=wrap;html=1;" vertex="1" parent="qG3GgvVvUm3bMl8M9qnN-42">
          <mxGeometry x="780" y="500" width="80" height="80" as="geometry" />
        </mxCell>
        <mxCell id="qG3GgvVvUm3bMl8M9qnN-51" value="" style="endArrow=classic;html=1;rounded=0;exitX=1;exitY=0.5;exitDx=0;exitDy=0;entryX=0;entryY=0.5;entryDx=0;entryDy=0;" edge="1" parent="qG3GgvVvUm3bMl8M9qnN-42" source="qG3GgvVvUm3bMl8M9qnN-46" target="qG3GgvVvUm3bMl8M9qnN-50">
          <mxGeometry width="50" height="50" relative="1" as="geometry">
            <mxPoint x="560" y="440" as="sourcePoint" />
            <mxPoint x="610" y="390" as="targetPoint" />
          </mxGeometry>
        </mxCell>
        <mxCell id="qG3GgvVvUm3bMl8M9qnN-43" value="Bronze:&lt;div&gt;Raw Data, Untouched.&lt;/div&gt;" style="text;html=1;align=center;verticalAlign=middle;whiteSpace=wrap;rounded=0;" vertex="1" parent="1">
          <mxGeometry x="135" y="670" width="210" height="30" as="geometry" />
        </mxCell>
        <mxCell id="qG3GgvVvUm3bMl8M9qnN-44" value="Silver:&lt;div&gt;Validation, Initial transformation,&lt;/div&gt;&lt;div&gt;Cleaned, Sorting out data types, removing duplicates.&lt;/div&gt;" style="text;html=1;align=center;verticalAlign=middle;whiteSpace=wrap;rounded=0;" vertex="1" parent="1">
          <mxGeometry x="415" y="670" width="210" height="60" as="geometry" />
        </mxCell>
        <mxCell id="qG3GgvVvUm3bMl8M9qnN-45" value="Gold:&lt;div&gt;Business specific, built for reports or some other use-case, usually aggregated.&lt;/div&gt;" style="text;html=1;align=center;verticalAlign=middle;whiteSpace=wrap;rounded=0;" vertex="1" parent="1">
          <mxGeometry x="695" y="670" width="210" height="60" as="geometry" />
        </mxCell>
        <mxCell id="qG3GgvVvUm3bMl8M9qnN-47" value="" style="endArrow=classic;html=1;rounded=0;exitX=0.5;exitY=1;exitDx=0;exitDy=0;entryX=0.5;entryY=0;entryDx=0;entryDy=0;" edge="1" parent="1" source="qG3GgvVvUm3bMl8M9qnN-39" target="qG3GgvVvUm3bMl8M9qnN-46">
          <mxGeometry width="50" height="50" relative="1" as="geometry">
            <mxPoint x="860" y="500" as="sourcePoint" />
            <mxPoint x="740" y="540" as="targetPoint" />
            <Array as="points">
              <mxPoint x="860" y="520" />
              <mxPoint x="740" y="520" />
            </Array>
          </mxGeometry>
        </mxCell>
        <mxCell id="qG3GgvVvUm3bMl8M9qnN-48" value="" style="swimlane;startSize=0;" vertex="1" parent="1">
          <mxGeometry x="40" y="660" width="960" height="80" as="geometry" />
        </mxCell>
      </root>
    </mxGraphModel>
  </diagram>
</mxfile>
